<svg width="32" height="29" viewBox="0 0 32 29" fill="none" xmlns="http://www.w3.org/2000/svg">
<path d="M11.2789 20.6142L16.0034 25.4999L20.7279 20.6142" stroke="white" stroke-width="2" stroke-linecap="round" stroke-linejoin="round"/>
<path d="M16.0032 14.5071V25.5" stroke="white" stroke-width="2" stroke-linecap="round" stroke-linejoin="round"/>
<path d="M26.4914 21.9456C27.5183 21.1988 28.2883 20.1331 28.6898 18.9032C29.0913 17.6732 29.1033 16.3429 28.7242 15.1053C28.345 13.8678 27.5944 12.7874 26.5812 12.0209C25.5681 11.2544 24.3451 10.8418 23.0897 10.8428H21.6015C21.2463 9.4111 20.5816 8.08142 19.6575 6.95384C18.7335 5.82626 17.5741 4.93015 16.2666 4.33299C14.9592 3.73582 13.5378 3.45316 12.1094 3.50628C10.6811 3.5594 9.28298 3.94691 8.0204 4.63965C6.75783 5.33239 5.66367 6.31231 4.8203 7.50562C3.97693 8.69893 3.40633 10.0745 3.15145 11.5289C2.89658 12.9833 2.96407 14.4785 3.34884 15.902C3.73362 17.3254 4.42565 18.6401 5.37284 19.747" stroke="white" stroke-width="2" stroke-linecap="round" stroke-linejoin="round"/>
</svg>
