<svg width="32" height="33" viewBox="0 0 32 33" fill="none" xmlns="http://www.w3.org/2000/svg">
<path d="M4 21.536C4.82791 23.4985 6.12283 25.2278 7.77155 26.5728C9.42028 27.9178 11.3726 28.8375 13.4578 29.2514C15.5431 29.6654 17.6978 29.5611 19.7335 28.9475C21.7692 28.334 23.624 27.2299 25.1357 25.7319C26.6473 24.2339 27.7699 22.3874 28.4052 20.3541C29.0405 18.3207 29.1692 16.1623 28.7801 14.0676C28.3909 11.9728 27.4957 10.0056 26.1728 8.3377C24.8499 6.66984 23.1395 5.35221 21.1912 4.5" stroke="white" stroke-width="3" stroke-linecap="round" stroke-linejoin="round"/>
<path d="M3 16.5C3 14.7928 3.33625 13.1023 3.98957 11.5251C4.64288 9.94788 5.60045 8.51477 6.80761 7.30761C8.01477 6.10045 9.44788 5.14288 11.0251 4.48957C12.6023 3.83625 14.2928 3.5 16 3.5V16.5H3Z" stroke="white" stroke-width="3" stroke-linecap="round" stroke-linejoin="round"/>
</svg>
