<svg width="37" height="38" viewBox="0 0 37 38" fill="none" xmlns="http://www.w3.org/2000/svg">
<path d="M20.7853 9.72812C26.4929 9.72812 29.7335 13.3666 30.2037 17.7637H30.3473C34.0211 17.7637 37 20.625 37 24.1547C37 27.6845 34.0211 30.5457 30.3473 30.5457H28.7398L28.7004 30.6406L25.2605 36.8951C25.1225 37.1492 24.8941 37.3424 24.6205 37.4367C24.3469 37.531 24.0478 37.5196 23.7821 37.4047C23.5165 37.2898 23.3036 37.0797 23.1854 36.8158C23.0672 36.552 23.0522 36.2535 23.1434 35.9791L23.2268 35.7895L26.113 30.5457H21.8184L21.7767 30.6406L18.3369 36.8951C18.1988 37.1492 17.9704 37.3424 17.6968 37.4367C17.4232 37.531 17.1241 37.5196 16.8585 37.4047C16.5928 37.2898 16.38 37.0797 16.2617 36.8158C16.1435 36.552 16.1285 36.2535 16.2197 35.9791L16.3031 35.7895L19.1916 30.5457H14.8553L11.39 36.8951C11.2519 37.1492 11.0236 37.3424 10.75 37.4367C10.4763 37.531 10.1772 37.5196 9.91162 37.4047C9.646 37.2898 9.43311 37.0797 9.31487 36.8158C9.19664 36.552 9.18165 36.2535 9.27284 35.9791L9.35623 35.7895L12.2193 30.5457H11.2232C7.54945 30.5457 4.57057 27.6845 4.57057 24.1547C4.57057 20.625 7.54945 17.7637 11.2232 17.7637H11.3669C11.8394 13.3365 15.0754 9.72812 20.7853 9.72812ZM20.7853 12.0412C16.9632 12.0412 13.6346 14.9788 13.6346 19.0382C13.6346 19.6813 13.0462 20.1855 12.3722 20.1855H11.0982C8.7725 20.1832 6.88696 21.9874 6.88696 24.2079C6.88696 26.4285 8.7725 28.2327 11.0982 28.2327H30.4724C32.7981 28.2327 34.6836 26.4285 34.6836 24.2079C34.6836 21.9874 32.7981 20.1832 30.4724 20.1832H29.1984C28.5243 20.1855 27.936 19.6813 27.936 19.0382C27.936 14.9279 24.605 12.0412 20.7853 12.0412ZM4.11424 15.9734C4.20329 16.2299 4.19918 16.5094 4.10263 16.7631C4.00608 17.0168 3.82323 17.2286 3.58611 17.3612L3.39616 17.4445L1.54074 18.0829C1.26692 18.1786 0.967121 18.1682 0.700625 18.0537C0.43413 17.9393 0.220346 17.7292 0.101556 17.4649C-0.0172342 17.2006 -0.0323809 16.9014 0.0591114 16.6265C0.150604 16.3516 0.342072 16.121 0.59565 15.9803L0.785594 15.8971L2.64334 15.2587C2.93362 15.1592 3.25158 15.1788 3.52737 15.3133C3.80316 15.4477 4.01424 15.686 4.11424 15.9757V15.9734ZM15.9672 6.25852C16.7386 6.63324 17.4149 7.1213 17.9917 7.69262C17.0513 7.88461 16.171 8.17837 15.3603 8.56003C14.3141 7.93123 13.0821 7.68385 11.8738 7.85999C10.6655 8.03613 9.55572 8.6249 8.73323 9.52612C7.91073 10.4273 7.42637 11.5853 7.36258 12.803C7.29879 14.0206 7.65951 15.2227 8.38335 16.2047C7.61894 16.4314 6.90086 16.7622 6.24069 17.1762C5.34513 15.7832 4.93042 14.1359 5.05978 12.4856C5.18914 10.8352 5.85549 9.27245 6.95719 8.03553C8.0589 6.79861 9.5355 5.95543 11.1618 5.6346C12.7881 5.31377 14.4749 5.53288 15.9649 6.25852H15.9672ZM2.06192 6.65174L2.25418 6.72576L4.01927 7.58391C4.27948 7.71022 4.48292 7.92921 4.58956 8.19778C4.6962 8.46635 4.69831 8.76505 4.59548 9.0351C4.49266 9.30515 4.29233 9.52699 4.03394 9.65695C3.77554 9.78692 3.47779 9.81561 3.19927 9.73738L3.00238 9.66336L1.23961 8.80521C0.979397 8.6789 0.775955 8.45991 0.669315 8.19134C0.562676 7.92277 0.560564 7.62407 0.663393 7.35402C0.766222 7.08397 0.966546 6.86213 1.22494 6.73217C1.48334 6.6022 1.78109 6.57351 2.05961 6.65174H2.06192ZM18.4457 1.15821C18.6896 1.27703 18.884 1.47759 18.9949 1.7249C19.1058 1.9722 19.1262 2.25054 19.0526 2.51135L18.9785 2.70565L18.1191 4.46821C17.9926 4.72804 17.7733 4.93119 17.5044 5.03768C17.2354 5.14417 16.9363 5.14628 16.6658 5.0436C16.3954 4.94091 16.1733 4.74088 16.0431 4.48285C15.9129 4.22483 15.8842 3.9275 15.9626 3.64938L16.0367 3.45277L16.8961 1.69021C16.9628 1.55333 17.0559 1.43095 17.1701 1.33009C17.2843 1.22922 17.4173 1.15185 17.5614 1.10243C17.7056 1.053 17.8582 1.03249 18.0103 1.04206C18.1625 1.05163 18.3112 1.0911 18.4481 1.15821H18.4457ZM9.66662 1.08419L9.75233 1.27386L10.3917 3.12894C10.4856 3.40201 10.4739 3.70031 10.3588 3.96519C10.2437 4.23008 10.0336 4.44239 9.76964 4.56038C9.50572 4.67838 9.20715 4.69353 8.93262 4.60285C8.65809 4.51218 8.42745 4.32223 8.28606 4.07036L8.20035 3.88069L7.56334 2.02792C7.47084 1.7555 7.48332 1.45842 7.59836 1.19469C7.7134 0.930962 7.92273 0.719507 8.1855 0.601606C8.44826 0.483704 8.7456 0.467818 9.01946 0.557049C9.29333 0.64628 9.52406 0.834223 9.66662 1.08419Z" fill="#6352CE"/>
</svg>
