<svg width="24" height="24" viewBox="0 0 24 24" fill="none" xmlns="http://www.w3.org/2000/svg">
<path d="M21 8V6H7V8H21ZM21 16V11H7V16H21ZM21 4C21.5304 4 22.0391 4.21071 22.4142 4.58579C22.7893 4.96086 23 5.46957 23 6V16C23 16.5304 22.7893 17.0391 22.4142 17.4142C22.0391 17.7893 21.5304 18 21 18H7C6.46957 18 5.96086 17.7893 5.58579 17.4142C5.21071 17.0391 5 16.5304 5 16V6C5 4.89 5.89 4 7 4H21ZM3 20H18V22H3C2.46957 22 1.96086 21.7893 1.58579 21.4142C1.21071 21.0391 1 20.5304 1 20V9H3V20Z" fill="#99ABB4"/>
</svg>
