<svg width="24" height="24" viewBox="0 0 24 24" fill="none" xmlns="http://www.w3.org/2000/svg">
<path d="M2.18182 10.9091H10.9091V2.18182H13.0909V10.9091H21.8182V13.0909H13.0909V21.8182H10.9091V13.0909H2.18182V10.9091ZM6.54546 19.6364H8.72728V21.8182H6.54546V19.6364ZM2.18182 15.2727H4.36364V17.4545H2.18182V15.2727ZM2.18182 19.6364H4.36364V21.8182H2.18182V19.6364ZM2.18182 2.18182H4.36364V4.36363H2.18182V2.18182ZM2.18182 6.54545H4.36364V8.72727H2.18182V6.54545ZM6.54546 2.18182H8.72728V4.36363H6.54546V2.18182ZM15.2727 2.18182H17.4546V4.36363H15.2727V2.18182ZM19.6364 2.18182H21.8182V4.36363H19.6364V2.18182ZM19.6364 6.54545H21.8182V8.72727H19.6364V6.54545ZM15.2727 19.6364H17.4546V21.8182H15.2727V19.6364ZM19.6364 19.6364H21.8182V21.8182H19.6364V19.6364ZM19.6364 15.2727H21.8182V17.4545H19.6364V15.2727Z" fill="#99ABB4"/>
</svg>
