<svg width="24" height="24" viewBox="0 0 24 24" fill="none" xmlns="http://www.w3.org/2000/svg">
<path d="M21.0005 18.2766V11.7166C21.2709 11.5661 21.5028 11.355 21.6778 11.0997C21.8528 10.8445 21.9662 10.5521 22.009 10.2456C22.0519 9.93915 22.023 9.62689 21.9247 9.33345C21.8264 9.04 21.6613 8.77337 21.4425 8.55454C21.2237 8.3357 20.957 8.17064 20.6636 8.07234C20.3701 7.97403 20.0579 7.94516 19.7514 7.98801C19.4449 8.03086 19.1525 8.14424 18.8973 8.31925C18.642 8.49426 18.4309 8.72611 18.2805 8.99656H15.0005V5.71656C15.2709 5.56613 15.5028 5.35499 15.6778 5.09975C15.8528 4.84451 15.9662 4.55214 16.009 4.24564C16.0519 3.93915 16.023 3.62689 15.9247 3.33345C15.8264 3.04 15.6613 2.77337 15.4425 2.55454C15.2237 2.3357 14.957 2.17064 14.6636 2.07234C14.3701 1.97403 14.0579 1.94516 13.7514 1.98801C13.4449 2.03086 13.1525 2.14424 12.8973 2.31925C12.642 2.49426 12.4309 2.72611 12.2805 2.99656H5.72047C5.57004 2.72611 5.35889 2.49426 5.10365 2.31925C4.84841 2.14424 4.55604 2.03086 4.24955 1.98801C3.94305 1.94516 3.6308 1.97403 3.33735 2.07234C3.0439 2.17064 2.77727 2.3357 2.55844 2.55454C2.33961 2.77337 2.17455 3.04 2.07624 3.33345C1.97794 3.62689 1.94907 3.93915 1.99192 4.24564C2.03476 4.55214 2.14815 4.84451 2.32316 5.09975C2.49817 5.35499 2.73002 5.56613 3.00047 5.71656V12.2766C2.73002 12.427 2.49817 12.6381 2.32316 12.8934C2.14815 13.1486 2.03476 13.441 1.99192 13.7475C1.94907 14.054 1.97794 14.3662 2.07624 14.6597C2.17455 14.9531 2.33961 15.2198 2.55844 15.4386C2.77727 15.6574 3.0439 15.8225 3.33735 15.9208C3.6308 16.0191 3.94305 16.048 4.24955 16.0051C4.55604 15.9623 4.84841 15.8489 5.10365 15.6739C5.35889 15.4989 5.57004 15.267 5.72047 14.9966H9.00047V18.2766C8.73002 18.427 8.49817 18.6381 8.32316 18.8934C8.14815 19.1486 8.03476 19.441 7.99192 19.7475C7.94907 20.054 7.97794 20.3662 8.07624 20.6597C8.17455 20.9531 8.33961 21.2198 8.55844 21.4386C8.77727 21.6574 9.0439 21.8225 9.33735 21.9208C9.6308 22.0191 9.94306 22.048 10.2495 22.0051C10.556 21.9623 10.8484 21.8489 11.1037 21.6739C11.3589 21.4989 11.57 21.267 11.7205 20.9966H18.2805C18.4309 21.267 18.642 21.4989 18.8973 21.6739C19.1525 21.8489 19.4449 21.9623 19.7514 22.0051C20.0579 22.048 20.3701 22.0191 20.6636 21.9208C20.957 21.8225 21.2237 21.6574 21.4425 21.4386C21.6613 21.2198 21.8264 20.9531 21.9247 20.6597C22.023 20.3662 22.0519 20.054 22.009 19.7475C21.9662 19.441 21.8528 19.1486 21.6778 18.8934C21.5028 18.6381 21.2709 18.427 21.0005 18.2766ZM8.00047 9.99656C8.00258 10.3456 8.09599 10.688 8.27142 10.9897C8.44685 11.2915 8.69819 11.5421 9.00047 11.7166V12.9966H5.72047C5.55004 12.6958 5.3012 12.447 5.00047 12.2766V5.71656C5.3012 5.54614 5.55004 5.29729 5.72047 4.99656H12.2805C12.4509 5.29729 12.6997 5.54614 13.0005 5.71656V8.99656H11.7205C11.4978 8.62115 11.1584 8.32891 10.754 8.16442C10.3497 7.99993 9.9027 7.97223 9.48116 8.08555C9.05963 8.19886 8.68674 8.44697 8.4194 8.79201C8.15205 9.13706 8.00493 9.56009 8.00047 9.99656ZM13.0005 10.9966V12.2766C12.6997 12.447 12.4509 12.6958 12.2805 12.9966H11.0005V11.7166C11.3012 11.5461 11.55 11.2973 11.7205 10.9966H13.0005ZM19.0005 18.2766C18.6997 18.447 18.4509 18.6958 18.2805 18.9966H11.7205C11.55 18.6958 11.3012 18.447 11.0005 18.2766V14.9966H12.2805C12.4309 15.267 12.642 15.4989 12.8973 15.6739C13.1525 15.8489 13.4449 15.9623 13.7514 16.0051C14.0579 16.048 14.3701 16.0191 14.6636 15.9208C14.957 15.8225 15.2237 15.6574 15.4425 15.4386C15.6613 15.2198 15.8264 14.9531 15.9247 14.6597C16.023 14.3662 16.0519 14.054 16.009 13.7475C15.9662 13.441 15.8528 13.1486 15.6778 12.8934C15.5028 12.6381 15.2709 12.427 15.0005 12.2766V10.9966H18.2805C18.4509 11.2973 18.6997 11.5461 19.0005 11.7166V18.2766Z" fill="#99ABB4"/>
</svg>
