<svg width="52" height="18" viewBox="0 0 52 18" fill="none" xmlns="http://www.w3.org/2000/svg">
<path d="M32.3333 13.5H30.8333V6.9375L26.3333 9.75L21.8333 6.9375V13.5H20.3333V4.5H21.2333L26.3333 7.6875L31.4333 4.5H32.3333M32.3333 3H20.3333C19.5008 3 18.8333 3.6675 18.8333 4.5V13.5C18.8333 13.8978 18.9913 14.2794 19.2727 14.5607C19.554 14.842 19.9355 15 20.3333 15H32.3333C32.7311 15 33.1127 14.842 33.394 14.5607C33.6753 14.2794 33.8333 13.8978 33.8333 13.5V4.5C33.8333 4.10218 33.6753 3.72064 33.394 3.43934C33.1127 3.15804 32.7311 3 32.3333 3Z" fill="#67757C"/>
</svg>
