<svg width="52" height="18" viewBox="0 0 52 18" fill="none" xmlns="http://www.w3.org/2000/svg">
<path d="M30.0866 4.08L28.9991 5.1675C29.66 5.56543 30.2068 6.12738 30.5866 6.79886C30.9664 7.47035 31.1662 8.22857 31.1666 9C31.1666 10.1935 30.6925 11.3381 29.8486 12.182C29.0047 13.0259 27.8601 13.5 26.6666 13.5C25.4732 13.5 24.3286 13.0259 23.4846 12.182C22.6407 11.3381 22.1666 10.1935 22.1666 9C22.1666 7.3725 23.0366 5.955 24.3266 5.16L23.2466 4.08C22.4501 4.62959 21.799 5.36458 21.3496 6.22166C20.9001 7.07874 20.6657 8.03223 20.6666 9C20.6666 10.5913 21.2988 12.1174 22.424 13.2426C23.5492 14.3679 25.0753 15 26.6666 15C28.2579 15 29.7841 14.3679 30.9093 13.2426C32.0345 12.1174 32.6666 10.5913 32.6666 9C32.6666 6.96 31.6466 5.16 30.0866 4.08ZM27.4166 2.25H25.9166V9.75H27.4166" fill="#67757C"/>
</svg>
