<svg width="52" height="18" viewBox="0 0 52 18" fill="none" xmlns="http://www.w3.org/2000/svg">
<path d="M31.925 9.49504C31.8047 9.35818 31.7384 9.18222 31.7384 9.00004C31.7384 8.81786 31.8047 8.64191 31.925 8.50504L32.885 7.42504C32.9908 7.30704 33.0565 7.15857 33.0726 7.00092C33.0888 6.84328 33.0546 6.68456 32.975 6.54754L31.475 3.95254C31.3962 3.81568 31.2761 3.7072 31.132 3.64256C30.9879 3.57791 30.8271 3.56041 30.6725 3.59254L29.2625 3.87754C29.0831 3.91461 28.8963 3.88474 28.7374 3.79354C28.5785 3.70235 28.4585 3.55616 28.4 3.38254L27.9425 2.01004C27.8922 1.86108 27.7963 1.73169 27.6685 1.64017C27.5406 1.54866 27.3872 1.49964 27.23 1.50004H24.23C24.0664 1.49151 23.9046 1.53674 23.7692 1.62883C23.6337 1.72092 23.5322 1.85481 23.48 2.01004L23.06 3.38254C23.0015 3.55616 22.8815 3.70235 22.7226 3.79354C22.5637 3.88474 22.3769 3.91461 22.1975 3.87754L20.75 3.59254C20.6034 3.57183 20.454 3.59496 20.3205 3.65902C20.187 3.72309 20.0755 3.82521 20 3.95254L18.5 6.54754C18.4184 6.68303 18.3816 6.84086 18.3951 6.99846C18.4086 7.15606 18.4715 7.30537 18.575 7.42504L19.5275 8.50504C19.6477 8.64191 19.714 8.81786 19.714 9.00004C19.714 9.18222 19.6477 9.35818 19.5275 9.49504L18.575 10.575C18.4715 10.6947 18.4086 10.844 18.3951 11.0016C18.3816 11.1592 18.4184 11.3171 18.5 11.4525L20 14.0475C20.0788 14.1844 20.1988 14.2929 20.3429 14.3575C20.487 14.4222 20.6479 14.4397 20.8025 14.4075L22.2125 14.1225C22.3919 14.0855 22.5787 14.1154 22.7376 14.2065C22.8965 14.2977 23.0165 14.4439 23.075 14.6175L23.5325 15.99C23.5847 16.1453 23.6862 16.2792 23.8217 16.3713C23.9571 16.4633 24.1189 16.5086 24.2825 16.5H27.2825C27.4397 16.5004 27.5931 16.4514 27.721 16.3599C27.8488 16.2684 27.9447 16.139 27.995 15.99L28.4525 14.6175C28.511 14.4439 28.631 14.2977 28.7899 14.2065C28.9488 14.1154 29.1356 14.0855 29.315 14.1225L30.725 14.4075C30.8796 14.4397 31.0404 14.4222 31.1845 14.3575C31.3286 14.2929 31.4487 14.1844 31.5275 14.0475L33.0275 11.4525C33.1071 11.3155 33.1413 11.1568 33.1251 10.9992C33.109 10.8415 33.0433 10.693 32.9375 10.575L31.925 9.49504ZM30.8075 10.5L31.4075 11.175L30.4475 12.84L29.5625 12.66C29.0223 12.5496 28.4604 12.6414 27.9834 12.9179C27.5064 13.1944 27.1476 13.6364 26.975 14.16L26.69 15H24.77L24.5 14.145C24.3274 13.6214 23.9685 13.1794 23.4915 12.9029C23.0146 12.6264 22.4526 12.5346 21.9125 12.645L21.0275 12.825L20.0525 11.1675L20.6525 10.4925C21.0214 10.08 21.2254 9.54599 21.2254 8.99254C21.2254 8.43909 21.0214 7.90506 20.6525 7.49254L20.0525 6.81754L21.0125 5.16754L21.8975 5.34754C22.4376 5.45796 22.9996 5.3662 23.4765 5.08969C23.9535 4.81318 24.3124 4.37116 24.485 3.84754L24.77 3.00004H26.69L26.975 3.85504C27.1476 4.37866 27.5064 4.82068 27.9834 5.09719C28.4604 5.3737 29.0223 5.46546 29.5625 5.35504L30.4475 5.17504L31.4075 6.84004L30.8075 7.51504C30.4427 7.92661 30.2412 8.45755 30.2412 9.00754C30.2412 9.55753 30.4427 10.0885 30.8075 10.5ZM25.73 6.00004C25.1366 6.00004 24.5566 6.17599 24.0633 6.50563C23.5699 6.83528 23.1854 7.30381 22.9583 7.85199C22.7313 8.40017 22.6719 9.00337 22.7876 9.58531C22.9034 10.1673 23.1891 10.7018 23.6087 11.1214C24.0282 11.5409 24.5628 11.8266 25.1447 11.9424C25.7267 12.0582 26.3299 11.9987 26.878 11.7717C27.4262 11.5446 27.8947 11.1601 28.2244 10.6668C28.554 10.1734 28.73 9.59339 28.73 9.00004C28.73 8.20439 28.4139 7.44133 27.8513 6.87872C27.2887 6.31611 26.5256 6.00004 25.73 6.00004ZM25.73 10.5C25.4333 10.5 25.1433 10.4121 24.8966 10.2472C24.65 10.0824 24.4577 9.84816 24.3442 9.57407C24.2306 9.29998 24.2009 8.99838 24.2588 8.70741C24.3167 8.41644 24.4595 8.14916 24.6693 7.93938C24.8791 7.7296 25.1464 7.58674 25.4373 7.52887C25.7283 7.47099 26.0299 7.50069 26.304 7.61422C26.5781 7.72776 26.8124 7.92001 26.9772 8.16669C27.142 8.41336 27.23 8.70337 27.23 9.00004C27.23 9.39787 27.0719 9.7794 26.7906 10.0607C26.5093 10.342 26.1278 10.5 25.73 10.5Z" fill="#67757C"/>
</svg>
