<svg width="18" height="17" viewBox="0 0 18 17" fill="none" xmlns="http://www.w3.org/2000/svg">
<path d="M15.6298 2.87194C15.2467 2.48869 14.7919 2.18467 14.2913 1.97725C13.7907 1.76983 13.2542 1.66307 12.7123 1.66307C12.1704 1.66307 11.6339 1.76983 11.1333 1.97725C10.6327 2.18467 10.1779 2.48869 9.7948 2.87194L8.9998 3.66694L8.2048 2.87194C7.43103 2.09817 6.38157 1.66347 5.2873 1.66347C4.19302 1.66347 3.14357 2.09817 2.3698 2.87194C1.59603 3.64571 1.16133 4.69516 1.16133 5.78944C1.16133 6.88371 1.59603 7.93317 2.3698 8.70694L3.1648 9.50194L8.9998 15.3369L14.8348 9.50194L15.6298 8.70694C16.013 8.32387 16.3171 7.86905 16.5245 7.36846C16.7319 6.86786 16.8387 6.33131 16.8387 5.78944C16.8387 5.24757 16.7319 4.71102 16.5245 4.21042C16.3171 3.70983 16.013 3.25501 15.6298 2.87194V2.87194Z" stroke="#99ABB4" stroke-width="1.5" stroke-linecap="round" stroke-linejoin="round"/>
</svg>
