<svg width="16" height="19" viewBox="0 0 16 19" fill="none" xmlns="http://www.w3.org/2000/svg">
<path d="M12.8375 6.46307C14.163 6.46307 15.2375 5.38855 15.2375 4.06307C15.2375 2.73759 14.163 1.66307 12.8375 1.66307C11.512 1.66307 10.4375 2.73759 10.4375 4.06307C10.4375 5.38855 11.512 6.46307 12.8375 6.46307Z" stroke="#99ABB4" stroke-width="1.5" stroke-linecap="round" stroke-linejoin="round"/>
<path d="M3.23789 12.0631C4.56337 12.0631 5.63789 10.9886 5.63789 9.66308C5.63789 8.33759 4.56337 7.26308 3.23789 7.26308C1.91241 7.26308 0.837891 8.33759 0.837891 9.66308C0.837891 10.9886 1.91241 12.0631 3.23789 12.0631Z" stroke="#99ABB4" stroke-width="1.5" stroke-linecap="round" stroke-linejoin="round"/>
<path d="M12.8375 17.6631C14.163 17.6631 15.2375 16.5886 15.2375 15.2631C15.2375 13.9376 14.163 12.8631 12.8375 12.8631C11.512 12.8631 10.4375 13.9376 10.4375 15.2631C10.4375 16.5886 11.512 17.6631 12.8375 17.6631Z" stroke="#99ABB4" stroke-width="1.5" stroke-linecap="round" stroke-linejoin="round"/>
<path d="M5.30957 10.8711L10.7736 14.0551" stroke="#99ABB4" stroke-width="1.5" stroke-linecap="round" stroke-linejoin="round"/>
<path d="M10.7656 5.2711L5.30957 8.4551" stroke="#99ABB4" stroke-width="1.5" stroke-linecap="round" stroke-linejoin="round"/>
</svg>
