<svg width="17" height="14" viewBox="0 0 17 14" fill="none" xmlns="http://www.w3.org/2000/svg">
<path d="M8.5 1.16667C7.20982 1.16667 6.00344 1.37782 4.88086 1.80013C3.75828 2.22244 2.86654 2.7921 2.20564 3.50911C1.54474 4.22613 1.21429 5.00087 1.21429 5.83333C1.21429 6.51389 1.44038 7.16254 1.89258 7.7793C2.34477 8.39605 2.98196 8.92925 3.80413 9.37891L4.62946 9.83463L4.37333 10.7096C4.22154 11.2626 4.00019 11.7852 3.70926 12.2773C4.67057 11.8945 5.54018 11.375 6.31808 10.7188L6.726 10.3724L7.26674 10.4271C7.70312 10.4757 8.11421 10.5 8.5 10.5C9.79018 10.5 10.9966 10.2888 12.1191 9.86654C13.2417 9.44423 14.1335 8.87457 14.7944 8.15755C15.4553 7.44054 15.7857 6.6658 15.7857 5.83333C15.7857 5.00087 15.4553 4.22613 14.7944 3.50911C14.1335 2.7921 13.2417 2.22244 12.1191 1.80013C10.9966 1.37782 9.79018 1.16667 8.5 1.16667ZM17 5.83333C17 6.89062 16.6205 7.8674 15.8616 8.76367C15.1027 9.65994 14.0718 10.3678 12.769 10.8874C11.4661 11.4069 10.0432 11.6667 8.5 11.6667C8.05729 11.6667 7.59877 11.6424 7.12444 11.5938C5.87221 12.6571 4.4176 13.3924 2.7606 13.7995C2.45071 13.8845 2.09022 13.9514 1.67913 14H1.6317C1.53683 14 1.45145 13.9681 1.37556 13.9043C1.29967 13.8405 1.24907 13.7569 1.22377 13.6536V13.6445C1.2048 13.6202 1.20322 13.5838 1.21903 13.5352C1.23484 13.4865 1.24116 13.4562 1.238 13.444C1.23484 13.4319 1.24907 13.403 1.28069 13.3574L1.33761 13.2754L1.40402 13.1979L1.47991 13.1159C1.52418 13.0673 1.62221 12.9625 1.774 12.8014C1.92578 12.6404 2.03488 12.525 2.10128 12.4551C2.16769 12.3852 2.26572 12.2652 2.39537 12.0951C2.52502 11.9249 2.62779 11.77 2.70368 11.6302C2.77958 11.4905 2.86496 11.3112 2.95982 11.0924C3.05469 10.8737 3.1369 10.6428 3.20647 10.3997C2.21354 9.85894 1.4309 9.19054 0.858538 8.39453C0.286179 7.59852 0 6.74479 0 5.83333C0 4.77604 0.379464 3.79926 1.13839 2.90299C1.89732 2.00673 2.9282 1.29883 4.23103 0.779297C5.53385 0.259766 6.95685 0 8.5 0C10.0432 0 11.4661 0.259766 12.769 0.779297C14.0718 1.29883 15.1027 2.00673 15.8616 2.90299C16.6205 3.79926 17 4.77604 17 5.83333Z" fill="#1E88E5"/>
</svg>
