<svg width="18" height="18" viewBox="0 0 18 18" fill="none" xmlns="http://www.w3.org/2000/svg">
<path d="M9.45 15.702H8.475C8.32937 15.7019 8.18786 15.6537 8.07234 15.5651C7.95683 15.4764 7.87376 15.3521 7.83599 15.2115L7.2555 13.0867L5.38049 14.163C5.25478 14.2347 5.10912 14.2633 4.96563 14.2446C4.82214 14.226 4.68867 14.161 4.58549 14.0595L3.89174 13.3702C3.78843 13.2673 3.72193 13.1332 3.70254 12.9887C3.68315 12.8441 3.71196 12.6973 3.78449 12.5707L4.88624 10.662L4.88174 10.65L2.79149 10.0897C2.65092 10.0521 2.52667 9.9692 2.43799 9.85381C2.34931 9.73843 2.30116 9.59702 2.30099 9.45149V8.47499C2.30124 8.32979 2.34925 8.18871 2.43762 8.0735C2.526 7.95829 2.64982 7.87536 2.78999 7.83749L4.91924 7.25474L3.83999 5.37824C3.76813 5.25217 3.73956 5.10603 3.75866 4.96217C3.77776 4.81832 3.84347 4.68469 3.94574 4.58174L4.63424 3.89324C4.73705 3.79102 4.8705 3.72527 5.01419 3.70604C5.15789 3.68681 5.30393 3.71515 5.42999 3.78674L7.344 4.88549H7.35299L7.91175 2.79299C7.94911 2.65221 8.03194 2.52772 8.14737 2.43888C8.26279 2.35004 8.40434 2.30183 8.54999 2.30174H9.52499C9.67071 2.30192 9.81231 2.35015 9.92783 2.43896C10.0434 2.52778 10.1264 2.65221 10.164 2.79299L10.7355 4.92149L12.6172 3.84074C12.7428 3.76914 12.8884 3.74051 13.0317 3.75919C13.1751 3.77787 13.3084 3.84285 13.4115 3.94424L14.106 4.63349C14.2095 4.73651 14.276 4.87087 14.2951 5.01562C14.3142 5.16037 14.2849 5.30738 14.2117 5.43374L13.1122 7.33274L13.1182 7.34924L15.2077 7.90874C15.3481 7.94661 15.4721 8.02963 15.5606 8.14498C15.6492 8.26033 15.6972 8.4016 15.6975 8.54699V9.52199C15.6974 9.66761 15.6492 9.80913 15.5606 9.92465C15.4719 10.0402 15.3476 10.1232 15.207 10.161L13.0792 10.7415L14.1585 12.6202C14.231 12.7463 14.26 12.8927 14.2409 13.0368C14.2218 13.1809 14.1556 13.3148 14.0527 13.4175L13.365 14.1052C13.2618 14.2074 13.1281 14.273 12.9841 14.292C12.8402 14.3111 12.694 14.2827 12.5677 14.211L10.6635 13.1145L10.65 13.125L10.0912 15.2137C10.0527 15.3542 9.96909 15.4781 9.85321 15.5663C9.73733 15.6546 9.59564 15.7022 9.45 15.702ZM8.5425 14.952H9.38174L9.93524 12.885C9.96232 12.7854 10.0122 12.6934 10.0809 12.6163C10.1496 12.5393 10.2353 12.4792 10.3312 12.441L10.4317 12.402C10.5238 12.3656 10.6229 12.3505 10.7217 12.3579C10.8204 12.3653 10.9162 12.395 11.0017 12.4447L12.8842 13.5285L13.476 12.9367L12.4087 11.0782C12.3581 10.9901 12.3286 10.8914 12.3223 10.79C12.3161 10.6885 12.3333 10.587 12.3727 10.4932L12.4117 10.3995C12.4505 10.3064 12.5101 10.2234 12.5861 10.1571C12.662 10.0907 12.7523 10.0428 12.8497 10.017L14.9497 9.45524V8.61524L12.8835 8.06249C12.7837 8.0355 12.6916 7.98558 12.6145 7.9167C12.5374 7.84782 12.4775 7.76188 12.4395 7.66574L12.4005 7.56674C12.3642 7.47427 12.3492 7.37481 12.3566 7.27574C12.364 7.17667 12.3936 7.08055 12.4432 6.99449L13.53 5.11349L12.93 4.52099L11.07 5.58974C10.9829 5.64004 10.8854 5.6697 10.785 5.67646C10.6847 5.68322 10.5841 5.6669 10.491 5.62874L10.4047 5.59349C10.3106 5.5546 10.2266 5.49462 10.1592 5.41816C10.0919 5.34171 10.043 5.25082 10.0162 5.15249L9.45525 3.04799H8.61899L8.06549 5.11949C8.0387 5.22122 7.98805 5.31509 7.91775 5.39335C7.84745 5.4716 7.75952 5.53198 7.66125 5.56949L7.57125 5.60324C7.48006 5.63845 7.38215 5.65281 7.28469 5.64528C7.18724 5.63776 7.0927 5.60853 7.00799 5.55974L5.11649 4.47149L4.52474 5.06324L5.59124 6.92024C5.64192 7.0091 5.6714 7.10846 5.67739 7.21058C5.68337 7.3127 5.6657 7.41482 5.62574 7.50899L5.58749 7.59899C5.54819 7.69027 5.48869 7.77145 5.41347 7.8364C5.33825 7.90136 5.24928 7.9484 5.15324 7.97399L3.05324 8.54249V9.38324L5.12099 9.93674C5.22024 9.96374 5.3119 10.0133 5.38879 10.0816C5.46569 10.1499 5.52574 10.2351 5.56424 10.3305L5.60024 10.4212C5.63805 10.5142 5.65399 10.6147 5.64683 10.7148C5.63968 10.8149 5.60963 10.9121 5.55899 10.9987L4.46849 12.8857L5.06849 13.479L6.92099 12.4147C7.00994 12.3635 7.10964 12.3338 7.21212 12.3279C7.3146 12.322 7.41704 12.3402 7.51125 12.381L7.59074 12.414C7.68673 12.4516 7.77248 12.5114 7.84102 12.5884C7.90957 12.6654 7.95898 12.7575 7.98525 12.8572L8.5425 14.952Z" fill="#99ABB4"/>
<path d="M9 11.25C8.55499 11.25 8.11998 11.118 7.74997 10.8708C7.37996 10.6236 7.09157 10.2722 6.92127 9.86104C6.75097 9.44991 6.70642 8.99751 6.79323 8.56105C6.88005 8.12459 7.09434 7.72368 7.40901 7.40901C7.72368 7.09434 8.12459 6.88005 8.56105 6.79323C8.99751 6.70642 9.44991 6.75097 9.86104 6.92127C10.2722 7.09157 10.6236 7.37996 10.8708 7.74997C11.118 8.11998 11.25 8.55499 11.25 9C11.25 9.59674 11.0129 10.169 10.591 10.591C10.169 11.0129 9.59674 11.25 9 11.25ZM9 7.5C8.70333 7.5 8.41332 7.58797 8.16665 7.7528C7.91997 7.91762 7.72771 8.15189 7.61418 8.42598C7.50065 8.70007 7.47095 9.00167 7.52882 9.29264C7.5867 9.58361 7.72956 9.85088 7.93934 10.0607C8.14912 10.2704 8.41639 10.4133 8.70737 10.4712C8.99834 10.5291 9.29994 10.4994 9.57403 10.3858C9.84812 10.2723 10.0824 10.08 10.2472 9.83336C10.412 9.58668 10.5 9.29667 10.5 9C10.5 8.60218 10.342 8.22065 10.0607 7.93934C9.77936 7.65804 9.39783 7.5 9 7.5Z" fill="#99ABB4"/>
</svg>
