<svg width="20" height="20" viewBox="0 0 20 20" fill="none" xmlns="http://www.w3.org/2000/svg">
<path d="M20 20L16 16H1.5C1.11667 16 0.770833 15.8458 0.4625 15.5375C0.154167 15.2292 0 14.8833 0 14.5V1.5C0 1.11667 0.154167 0.770833 0.4625 0.4625C0.770833 0.154167 1.11667 0 1.5 0H18.5C18.9 0 19.25 0.154167 19.55 0.4625C19.85 0.770833 20 1.11667 20 1.5V20ZM1.5 1.5V14.5H16.625L18.5 16.375V1.5H1.5ZM1.5 1.5V16.375V14.5V1.5Z" fill="white"/>
<path d="M18.5 1.5H1.5V14L16.5 14.5L18.5 16V1.5Z" fill="white" stroke="white"/>
</svg>
