<svg width="18" height="19" viewBox="0 0 18 19" fill="none" xmlns="http://www.w3.org/2000/svg">
<path d="M16.5 2.00001L12 6.50001M12 2.00001L16.5 6.50001M16.5 13.19V15.44C16.5009 15.6489 16.4581 15.8556 16.3744 16.047C16.2907 16.2384 16.168 16.4102 16.0141 16.5514C15.8601 16.6926 15.6784 16.8001 15.4806 16.867C15.2827 16.934 15.073 16.9588 14.865 16.94C12.5571 16.6892 10.3403 15.9006 8.3925 14.6375C6.58037 13.486 5.04401 11.9496 3.8925 10.1375C2.62499 8.18092 1.83619 5.95326 1.59 3.63501C1.57126 3.42761 1.59591 3.21858 1.66238 3.02123C1.72885 2.82388 1.83568 2.64253 1.97608 2.48873C2.11647 2.33493 2.28736 2.21204 2.47785 2.1279C2.66834 2.04376 2.87426 2.00021 3.0825 2.00001H5.3325C5.69648 1.99643 6.04935 2.12532 6.32532 2.36266C6.6013 2.6 6.78156 2.9296 6.8325 3.29001C6.92747 4.01006 7.10359 4.71706 7.3575 5.39751C7.45841 5.66595 7.48025 5.9577 7.42043 6.23817C7.36062 6.51865 7.22165 6.77609 7.02 6.98001L6.0675 7.93251C7.13517 9.81017 8.68984 11.3648 10.5675 12.4325L11.52 11.48C11.7239 11.2784 11.9814 11.1394 12.2618 11.0796C12.5423 11.0198 12.8341 11.0416 13.1025 11.1425C13.783 11.3964 14.49 11.5725 15.21 11.6675C15.5743 11.7189 15.9071 11.9024 16.1449 12.1831C16.3828 12.4638 16.5091 12.8222 16.5 13.19Z" stroke="#1E88E5" stroke-width="1.5" stroke-linecap="round" stroke-linejoin="round"/>
</svg>
