<svg width="18" height="19" viewBox="0 0 18 19" fill="none" xmlns="http://www.w3.org/2000/svg">
<g clip-path="url(#clip0_0_2288)">
<path d="M17.5843 14.0636C17.3089 13.8701 14.2961 11.8668 13.9269 11.6412C13.766 11.5428 13.5697 11.4947 13.3562 11.4947C13.0809 11.4947 12.776 11.5748 12.4785 11.7315C12.1885 11.8842 11.3101 12.384 10.8804 12.6295C10.5018 12.3637 9.61251 11.6825 8.21131 10.28C6.81886 8.88805 6.13148 7.99144 5.86401 7.61089C6.10898 7.18142 6.6082 6.30308 6.76008 6.01395C7.0478 5.46889 7.08044 4.92467 6.84698 4.55764C6.62791 4.2117 4.6327 1.18601 4.42683 0.90139C4.23305 0.632796 3.88514 0.487671 3.50772 0.487671C3.20988 0.487671 2.89403 0.577671 2.62009 0.768358C2.59366 0.787202 -0.0534859 2.70645 -0.0183297 3.79798C0.0792817 6.86417 3.05883 10.4675 5.54112 12.9507C8.02342 15.4339 11.6271 18.4142 14.7054 18.5124H14.7307C15.8084 18.5124 17.703 15.8987 17.7212 15.8729C18.2182 15.1627 18.0371 14.3808 17.5843 14.0636ZM16.8072 15.2176C16.0936 16.2059 15.0806 17.2381 14.684 17.3858C12.5741 17.2868 9.61336 15.4325 6.33651 12.1551C3.05995 8.87741 1.20595 5.92007 1.10808 3.81716C1.25039 3.41947 2.28256 2.39994 3.26187 1.69175C3.33443 1.64169 3.42387 1.61272 3.5074 1.61272C3.52595 1.61272 3.54142 1.61441 3.55353 1.61666C3.86993 2.0765 5.5684 4.64771 5.87665 5.12835C5.87778 5.17897 5.86064 5.30747 5.76415 5.49086C5.6615 5.68633 5.34172 6.25614 4.88693 7.05321L4.53312 7.67336L4.94347 8.2578C5.24946 8.69233 5.97734 9.63705 7.41537 11.0754C8.85959 12.5201 9.80093 13.2458 10.2338 13.5501L10.8182 13.9604L11.4384 13.6061C12.0394 13.2626 12.7656 12.8512 13.0019 12.7271C13.1914 12.6273 13.3211 12.6194 13.3562 12.6194C13.3619 12.6194 13.3667 12.6194 13.3706 12.62C13.8012 12.8903 16.4281 14.6343 16.8918 14.9524C16.8994 14.9974 16.8924 15.0953 16.8072 15.2176ZM12.0217 7.21971L16.86 2.41082L16.8445 5.13642C16.8394 5.36395 17.0197 5.56167 17.2473 5.55634L17.5358 5.55606C17.7636 5.55043 17.9515 5.41543 17.9563 5.18818L17.9678 1.1275C17.9678 1.12358 17.9527 1.12076 17.9527 1.11683L17.9749 0.910952C17.9771 0.796765 17.9507 0.694952 17.8764 0.622108C17.8039 0.54872 17.7018 0.503983 17.5884 0.507095L17.3828 0.511876C17.3789 0.511876 17.3758 0.513563 17.3713 0.514126L13.3376 0.496108C13.1104 0.501188 12.9225 0.689063 12.9172 0.916595L12.9166 1.20516C12.9512 1.47292 13.1616 1.62984 13.3891 1.62478L16.0478 1.63181L11.2263 6.42407C11.0066 6.64372 11.0066 7.00007 11.2263 7.21972C11.4459 7.43912 11.802 7.43912 12.0216 7.21972L12.0217 7.21971Z" fill="#26C6DA"/>
</g>
<defs>
<clipPath id="clip0_0_2288">
<rect width="18" height="18" fill="white" transform="translate(0 0.5)"/>
</clipPath>
</defs>
</svg>
