<svg width="18" height="19" viewBox="0 0 18 19" fill="none" xmlns="http://www.w3.org/2000/svg">
<g clip-path="url(#clip0_0_2269)">
<path d="M17.5843 14.0636C17.3089 13.8701 14.2961 11.8668 13.9269 11.6412C13.766 11.5428 13.5697 11.4947 13.3562 11.4947C13.0809 11.4947 12.776 11.5748 12.4785 11.7315C12.1885 11.8842 11.3101 12.384 10.8804 12.6295C10.5018 12.3637 9.61251 11.6825 8.21131 10.28C6.81886 8.88805 6.13148 7.99144 5.86401 7.61089C6.10898 7.18142 6.6082 6.30308 6.76008 6.01395C7.0478 5.46889 7.08044 4.92467 6.84698 4.55764C6.62791 4.2117 4.6327 1.18601 4.42683 0.90139C4.23305 0.632796 3.88514 0.487671 3.50772 0.487671C3.20988 0.487671 2.89403 0.577671 2.62009 0.768358C2.59366 0.787202 -0.0534859 2.70645 -0.0183297 3.79798C0.0792817 6.86417 3.05883 10.4675 5.54112 12.9507C8.02342 15.4339 11.6271 18.4142 14.7054 18.5124H14.7307C15.8084 18.5124 17.703 15.8987 17.7212 15.8729C18.2182 15.1627 18.0371 14.3808 17.5843 14.0636ZM16.8072 15.2176C16.0936 16.2059 15.0806 17.2381 14.684 17.3858C12.5741 17.2868 9.61336 15.4325 6.33651 12.1551C3.05995 8.87741 1.20595 5.92007 1.10808 3.81716C1.25039 3.41947 2.28256 2.39994 3.26187 1.69175C3.33443 1.64169 3.42387 1.61272 3.5074 1.61272C3.52595 1.61272 3.54142 1.61441 3.55353 1.61666C3.86993 2.0765 5.5684 4.64771 5.87665 5.12835C5.87778 5.17897 5.86064 5.30747 5.76415 5.49086C5.6615 5.68633 5.34172 6.25614 4.88693 7.05321L4.53312 7.67336L4.94347 8.2578C5.24946 8.69233 5.97734 9.63705 7.41537 11.0754C8.85959 12.5201 9.80093 13.2458 10.2338 13.5501L10.8182 13.9604L11.4384 13.6061C12.0394 13.2626 12.7656 12.8512 13.0019 12.7271C13.1914 12.6273 13.3211 12.6194 13.3562 12.6194C13.3619 12.6194 13.3667 12.6194 13.3706 12.62C13.8012 12.8903 16.4281 14.6343 16.8918 14.9524C16.8994 14.9974 16.8924 15.0953 16.8072 15.2176ZM11.3174 7.11847C11.39 7.19188 11.4921 7.23663 11.6055 7.23354L11.8113 7.22874C11.8153 7.22874 11.8181 7.22707 11.8226 7.22681L15.8568 7.24451C16.0838 7.23917 16.272 7.05129 16.2773 6.82374L16.2776 6.53518C16.2433 6.26743 16.0326 6.11049 15.8053 6.11555L13.1422 6.10852L17.7468 1.51008C17.9665 1.29043 17.9665 0.934067 17.7468 0.714411C17.5272 0.495036 17.1711 0.495036 16.9514 0.714411L12.3342 5.3255L12.3496 2.60383C12.3547 2.3766 12.1744 2.1786 11.9472 2.18394L11.6586 2.18421C11.4308 2.18983 11.2426 2.32513 11.2378 2.55238L11.2263 6.61307C11.2263 6.61699 11.2418 6.6198 11.2418 6.62374L11.2193 6.82961C11.217 6.9438 11.2437 7.04533 11.3174 7.11847Z" fill="#6352CE"/>
</g>
<defs>
<clipPath id="clip0_0_2269">
<rect width="18" height="18" fill="white" transform="translate(0 0.5)"/>
</clipPath>
</defs>
</svg>
